<?xml version="1.0" encoding="UTF-8" standalone="no"?>
<!-- Created with Inkscape (http://www.inkscape.org/) -->

<svg
   width="138.00987mm"
   height="128.92824mm"
   viewBox="0 0 138.00987 128.92824"
   version="1.1"
   id="svg1"
   inkscape:version="1.3.1 (91b66b0783, 2023-11-16)"
   sodipodi:docname="Logo EcoVolt - copia (2).svg"
   xmlns:inkscape="http://www.inkscape.org/namespaces/inkscape"
   xmlns:sodipodi="http://sodipodi.sourceforge.net/DTD/sodipodi-0.dtd"
   xmlns="http://www.w3.org/2000/svg"
   xmlns:svg="http://www.w3.org/2000/svg">
  <sodipodi:namedview
     id="namedview1"
     pagecolor="#ffffff"
     bordercolor="#999999"
     borderopacity="1"
     inkscape:showpageshadow="2"
     inkscape:pageopacity="0"
     inkscape:pagecheckerboard="0"
     inkscape:deskcolor="#d1d1d1"
     inkscape:document-units="mm"
     inkscape:zoom="0.74564394"
     inkscape:cx="334.61011"
     inkscape:cy="318.51664"
     inkscape:window-width="1920"
     inkscape:window-height="1051"
     inkscape:window-x="-9"
     inkscape:window-y="-9"
     inkscape:window-maximized="1"
     inkscape:current-layer="group-MC0" />
  <defs
     id="defs1">
    <clipPath
       clipPathUnits="userSpaceOnUse"
       id="clipPath106">
      <path
         d="M 0,792 H 612 V 0 H 0 Z"
         transform="translate(-195.57621,-345.21911)"
         id="path106" />
    </clipPath>
    <clipPath
       clipPathUnits="userSpaceOnUse"
       id="clipPath108">
      <path
         d="M 0,792 H 612 V 0 H 0 Z"
         transform="translate(-123.82761,-319.98871)"
         id="path108" />
    </clipPath>
    <clipPath
       clipPathUnits="userSpaceOnUse"
       id="clipPath110">
      <path
         d="M 0,792 H 612 V 0 H 0 Z"
         transform="translate(-205.86661,-310.08441)"
         id="path110" />
    </clipPath>
    <clipPath
       clipPathUnits="userSpaceOnUse"
       id="clipPath112">
      <path
         d="M 0,792 H 612 V 0 H 0 Z"
         transform="translate(-158.076,-258.93561)"
         id="path112" />
    </clipPath>
    <clipPath
       clipPathUnits="userSpaceOnUse"
       id="clipPath114">
      <path
         d="M 0,792 H 612 V 0 H 0 Z"
         transform="translate(-203.1208,-281.4283)"
         id="path114" />
    </clipPath>
    <clipPath
       clipPathUnits="userSpaceOnUse"
       id="clipPath116">
      <path
         d="M 0,792 H 612 V 0 H 0 Z"
         transform="translate(-255.54391,-353.13281)"
         id="path116" />
    </clipPath>
    <clipPath
       clipPathUnits="userSpaceOnUse"
       id="clipPath118">
      <path
         d="M 0,792 H 612 V 0 H 0 Z"
         transform="translate(-279.27591,-338.26271)"
         id="path118" />
    </clipPath>
    <clipPath
       clipPathUnits="userSpaceOnUse"
       id="clipPath120">
      <path
         d="M 0,792 H 612 V 0 H 0 Z"
         transform="translate(-301.14451,-347.18461)"
         id="path120" />
    </clipPath>
    <clipPath
       clipPathUnits="userSpaceOnUse"
       id="clipPath122">
      <path
         d="M 0,792 H 612 V 0 H 0 Z"
         transform="translate(-237.7207,-286.6582)"
         id="path122" />
    </clipPath>
    <clipPath
       clipPathUnits="userSpaceOnUse"
       id="clipPath124">
      <path
         d="M 0,792 H 612 V 0 H 0 Z"
         transform="translate(-276.96241,-311.67191)"
         id="path124" />
    </clipPath>
    <clipPath
       clipPathUnits="userSpaceOnUse"
       id="clipPath126">
      <path
         d="M 0,792 H 612 V 0 H 0 Z"
         transform="translate(-292.82371,-317.62011)"
         id="path126" />
    </clipPath>
    <clipPath
       clipPathUnits="userSpaceOnUse"
       id="clipPath128">
      <path
         d="M 0,792 H 612 V 0 H 0 Z"
         transform="translate(-326.52831,-311.67191)"
         id="path128" />
    </clipPath>
    <clipPath
       clipPathUnits="userSpaceOnUse"
       id="clipPath130">
      <path
         d="M 0,792 H 612 V 0 H 0 Z"
         transform="translate(-260.0503,-275.0479)"
         id="path130" />
    </clipPath>
    <clipPath
       clipPathUnits="userSpaceOnUse"
       id="clipPath132">
      <path
         d="M 0,792 H 612 V 0 H 0 Z"
         transform="translate(-285.45171,-275.0479)"
         id="path132" />
    </clipPath>
    <clipPath
       clipPathUnits="userSpaceOnUse"
       id="clipPath134">
      <path
         d="M 0,792 H 612 V 0 H 0 Z"
         transform="translate(-294.67771,-270.7441)"
         id="path134" />
    </clipPath>
    <clipPath
       clipPathUnits="userSpaceOnUse"
       id="clipPath136">
      <path
         d="M 0,792 H 612 V 0 H 0 Z"
         transform="translate(-120.7978,-292.3822)"
         id="path136" />
    </clipPath>
    <clipPath
       clipPathUnits="userSpaceOnUse"
       id="clipPath138">
      <path
         d="M 0,792 H 612 V 0 H 0 Z"
         transform="translate(-196.59141,-290.7289)"
         id="path138" />
    </clipPath>
  </defs>
  <g
     inkscape:label="Capa 1"
     inkscape:groupmode="layer"
     id="layer1"
     transform="translate(-35.995066,-84.035874)">
    <g
       id="group-MC0"
       transform="matrix(0.40207652,0,0,0.40207652,-5.2988393,-117.21892)">
      <path
         id="path105"
         clip-path="url(#clipPath106)"
         style="fill:#ffffff;fill-opacity:1;fill-rule:nonzero;stroke:none"
         d="M 11.22281 71.377 L -96.204195 -40.264303 L -76.057113 -35.576716 C -75.034899 -28.92079 -71.74835 -25.230865 -71.74835 -25.230865 C -71.74835 -25.230865 -64.685513 -34.822515 -63.486514 -30.798519 C -62.287515 -26.773523 -51.709346 -10.82574 -38.13036 -8.1847429 C -28.888613 -6.3873018 -20.993422 -12.172205 -14.338662 -19.651643 L -3.7576123 -5.1493302 C -4.9952384 -4.0307253 -6.3604897 -2.9647523 -7.8388881 -1.9741478 L -22.417352 -5.6457537 L -22.422171 -5.6457537 L -24.734637 -6.2973697 L -20.250439 3.3891536 C -21.411736 3.6581751 -22.60465 3.8803107 -23.832399 4.0455893 C -41.634365 6.4415845 -51.038334 -0.27474082 -51.038334 -0.27474082 C -42.998154 6.3942458 -28.506753 6.7714242 -19.407001 5.2109796 L 11.22281 71.377 z M -0.00021676806 -2.1035401e-05 L -3.4983154 -0.88105222 C -2.8444127 -1.2902858 -2.205151 -1.7186396 -1.5762408 -2.1601861 L -0.00021676806 -2.1035401e-05 z M -73.888273 -51.507572 L -107.28456 -100.8858 L -73.256899 -93.435595 L -118.55 -169.11463 L -11.143237 -59.510111 L -14.546871 -60.271615 C -16.032971 -61.823585 -17.591857 -63.380147 -19.199756 -64.942815 C -31.108744 -76.516804 -58.779407 -78.114674 -70.758395 -57.837694 C -72.06352 -55.628362 -73.082946 -53.520771 -73.888273 -51.507572 z "
         transform="matrix(1.3333333,0,0,-1.3333333,260.76827,595.70787)" />
      <path
         id="path109"
         clip-path="url(#clipPath110)"
         style="fill:#ffffff;fill-opacity:1;fill-rule:nonzero;stroke:none"
         d="M -40.922353 44.543587 C -66.776825 43.509294 -80.37952 21.947398 -82.038748 9.9038311 C -83.884742 -3.4881276 -77.497783 -23.984204 -57.744843 -26.706196 C -37.991903 -29.429189 -29.934797 -15.527449 -28.8048 -7.3244735 C -27.674804 0.87750232 -32.095747 9.7118543 -39.335726 10.330852 C -45.236708 10.834849 -47.526231 9.0719603 -47.526231 9.0719603 C -40.997251 8.1719612 -39.940931 2.2276389 -40.425929 -1.2883495 C -40.909928 -4.80334 -44.014766 -10.005006 -51.547743 -8.9670086 C -59.080721 -7.9290117 -60.921181 -0.65984708 -59.526184 4.9251373 C -57.76519 11.975116 -48.174852 19.225246 -37.460884 17.74925 C -26.746916 16.272255 -19.532888 5.6862423 -20.758884 -5.8747241 C -21.738881 -15.117697 -32.362685 -36.857034 -59.648603 -33.097045 C -74.258365 -31.083531 -81.730924 -19.846989 -84.401338 -14.799744 C -78.460154 -32.177181 -62.364007 -44.640096 -43.427605 -44.640096 C -42.52336 -44.640096 -41.627748 -44.601665 -40.737279 -44.545631 C -38.887154 -42.884501 -36.966948 -41.207913 -35.1783 -39.813703 C -29.750317 -35.582716 -24.483506 -35.383485 -24.483506 -35.383485 C -24.483506 -35.383485 -26.23549 -36.778988 -27.47747 -41.505399 C -18.26147 -37.755693 -10.582785 -30.875373 -5.7119514 -22.118857 C -6.0267769 -22.02842 -6.3105226 -21.919334 -6.5765958 -21.801724 C -6.6519274 -21.768441 -6.7189937 -21.732574 -6.790588 -21.69762 C -6.9468115 -21.621345 -7.0882808 -21.543042 -7.2272479 -21.460494 C -7.5593327 -21.263564 -7.85078 -21.05683 -8.0918923 -20.846471 C -8.1458998 -20.799327 -8.184797 -20.758372 -8.2345538 -20.711521 C -8.4011831 -20.555057 -8.5202959 -20.421503 -8.6422958 -20.276789 C -8.8063629 -20.08316 -8.9294811 -19.926442 -9.0230478 -19.780365 C -9.0716803 -19.705082 -9.106495 -19.665764 -9.1387193 -19.608786 C -9.2270439 -19.456606 -9.2755972 -19.355272 -9.2755972 -19.355272 C -9.2755972 -19.355272 -5.892111 -14.862522 -3.7137264 -7.8999391 C -3.4025286 -6.9052844 -3.1150461 -5.8596222 -2.8664327 -4.7700614 C -2.6178194 -3.6805006 -2.4078227 -2.5468091 -2.2485542 -1.3741392 C -1.1336742 6.8345498 -2.5354058 16.934839 -11.043443 26.903684 C -11.656316 27.621807 -12.317416 28.330829 -13.024317 29.024328 C -13.731219 29.717828 -14.484065 30.396033 -15.281839 31.052435 C -16.079613 31.708838 -16.921842 32.34358 -17.807334 32.950412 C -18.692825 33.557243 -19.621107 34.135877 -20.591161 34.680664 C -21.561214 35.225452 -22.573186 35.736294 -23.624646 36.206564 C -26.779025 37.617373 -30.292559 38.664662 -34.122797 39.180285 C -43.023771 40.378282 -49.825704 39.298083 -54.401937 37.918502 C -55.545996 37.573607 -56.550277 37.210561 -57.414216 36.859144 C -60.00603 35.804892 -61.328732 34.859955 -61.328732 34.859955 C -60.847417 35.259185 -60.335606 35.627845 -59.810543 35.982932 C -59.693901 36.06182 -59.578321 36.141366 -59.459673 36.218131 C -59.21265 36.377954 -58.949659 36.519454 -58.694314 36.670214 C -58.191284 36.967225 -57.677703 37.250749 -57.145279 37.513652 C -56.890219 37.639602 -56.633362 37.761583 -56.372208 37.879945 C -55.828888 38.126203 -55.272448 38.353743 -54.705575 38.56819 C -54.460257 38.660998 -54.22028 38.759729 -53.971061 38.846766 C -53.159755 39.130128 -52.334618 39.392184 -51.488944 39.616945 C -50.63527 39.843832 -49.764121 40.033769 -48.886335 40.204942 C -48.623861 40.256125 -48.359907 40.298276 -48.095913 40.344712 C -47.467452 40.455274 -46.837988 40.554992 -46.20372 40.639674 C -45.902311 40.679919 -45.602582 40.717811 -45.300519 40.752454 C -44.677322 40.823937 -44.055636 40.88117 -43.432424 40.929816 C -43.153529 40.951592 -42.876021 40.977963 -42.597662 40.995364 C -41.717958 41.050362 -40.840291 41.090446 -39.972883 41.104288 C -38.94713 41.120656 -37.942475 41.101019 -36.950001 41.065731 C -36.70895 41.057171 -36.47225 41.047221 -36.233802 41.035849 C -35.260304 40.989422 -34.301106 40.928642 -33.381536 40.839207 C -32.457082 40.749297 -31.579608 40.632751 -30.726875 40.505688 C -30.516435 40.47434 -30.311524 40.442665 -30.106105 40.409295 C -29.277746 40.274748 -28.475759 40.130392 -27.739659 39.966851 C -26.783664 39.754414 -25.842727 39.499787 -24.909563 39.226554 C -24.654395 39.152037 -24.400433 39.076047 -24.147095 38.997139 C -23.261307 38.720488 -22.383144 38.42579 -21.521352 38.096829 C -21.313913 38.017785 -21.112319 37.928222 -20.906366 37.846207 C -20.4673 37.671144 -20.026578 37.499408 -19.594458 37.311227 C -25.782576 41.496359 -33.074031 44.082472 -40.922353 44.543587 z "
         transform="matrix(1.3333333,0,0,-1.3333333,274.4888,642.55413)" />
      <path
         id="path111"
         clip-path="url(#clipPath112)"
         style="fill:#ffffff;fill-opacity:1;fill-rule:nonzero;stroke:none"
         d="M 9.5229089 95.737693 C 8.8274847 95.74773 8.140766 95.742849 7.4620285 95.724198 C -18.782483 95.003026 -32.576119 73.189108 -34.248147 61.052632 C -36.094143 47.66066 -29.707202 27.1646 -9.9542422 24.442606 C 9.7987184 21.71961 17.855803 35.621344 18.985801 43.824328 C 20.115799 52.026312 15.694861 60.860655 8.4548755 61.479653 C 2.5538873 61.983651 0.26437006 60.220762 0.26437006 60.220762 C 6.793357 59.320762 7.8496707 53.376444 7.3646717 49.860452 C 6.8806727 46.345458 3.7758429 41.143795 -3.7571421 42.181793 C -11.290127 43.219791 -13.130581 50.488949 -11.735583 56.073939 C -9.9745868 63.123925 -0.38426146 70.374049 10.329718 68.898051 C 21.043696 67.421055 28.257715 56.835055 27.031717 45.274077 C 26.051719 36.031095 15.427944 14.291764 -11.858002 18.051756 C -30.773964 20.65875 -37.81854 38.858165 -37.81854 38.858165 C -38.787538 31.827179 -27.89855 14.292793 -15.717574 6.1318088 C -11.922582 3.5898138 -4.2717379 1.2912533 0.00025348989 0.00025589784 C 0.00025348989 0.00025589784 7.1843122 7.1041064 12.612302 11.335098 C 18.04029 15.56609 23.307095 15.765316 23.307095 15.765316 C 23.307095 15.765316 20.641445 13.745316 19.556447 5.8773315 C 17.895449 -6.1756443 33.158161 -9.303046 36.079155 -10.387044 C 39.000149 -11.472042 43.69328 -13.3128 45.696276 -17.341792 C 47.700272 -21.370784 49.865143 -24.228451 53.022137 -24.833449 C 56.180131 -25.439449 59.394672 -23.153321 59.394672 -23.153321 L 62.913013 -23.776019 C 62.913013 -23.776019 63.676355 -23.949245 64.213353 -23.449247 C 65.695351 -22.068249 69.921139 -17.947093 70.392139 -17.494093 C 70.961137 -16.946095 70.940019 -16.605408 70.716019 -15.96241 C 70.492019 -15.31841 57.397411 27.955163 57.397411 27.955163 C 57.397411 27.955163 59.60534 40.35867 58.548342 51.164648 C 57.370344 63.219624 49.654192 90.601423 16.00726 95.237413 C 13.770905 95.545593 11.609182 95.707582 9.5229089 95.737693 z M 7.8177184 92.253089 C 12.399722 92.32622 16.73595 91.852151 20.050942 91.115653 C 37.515908 87.234661 51.454415 73.136737 52.854413 55.463771 C 54.426409 35.623811 49.319685 29.6324 49.319685 29.6324 C 40.676703 26.686406 38.515004 31.793529 38.515004 31.793529 C 38.515004 31.793529 56.19412 55.26653 36.747158 78.052486 C 31.844168 83.797474 23.881784 88.95409 13.667804 90.329086 C -4.1341604 92.725082 -13.538131 86.008756 -13.538131 86.008756 C -8.1362658 90.489373 0.18104415 92.131204 7.8177184 92.253089 z M 45.04466 22.492577 L 51.400808 17.86379 L 52.325216 9.7195529 L 45.103459 15.490596 L 45.04466 22.492577 z "
         transform="matrix(1.3333333,0,0,-1.3333333,210.768,710.75253)" />
      <path
         id="path115"
         d="m 0,0 v -5.948 h -11.896 v -4.956 H 0 v -5.949 h -11.896 v -4.956 H 0 v -5.948 H -17.844 V 0 Z"
         style="fill:#ffffff;fill-opacity:1;fill-rule:nonzero;stroke:none"
         transform="matrix(1.3333333,0,0,-1.3333333,340.7252,585.15627)"
         clip-path="url(#clipPath116)" />
      <path
         id="path117"
         d="M 0,0 H 5.968 C 5.756,-3.41 4.415,-6.351 1.943,-8.822 c -2.71,-2.71 -5.981,-4.065 -9.814,-4.065 -3.834,0 -7.105,1.355 -9.814,4.065 -2.71,2.709 -4.065,5.98 -4.065,9.814 0,3.833 1.355,7.104 4.065,9.814 2.709,2.71 5.98,4.064 9.814,4.064 3.833,0 7.104,-1.354 9.814,-4.064 C 4.415,8.334 5.756,5.394 5.968,1.983 H 0 c -0.198,1.771 -0.952,3.311 -2.26,4.62 -1.547,1.546 -3.417,2.319 -5.611,2.319 -2.194,0 -4.065,-0.773 -5.611,-2.319 -1.546,-1.547 -2.32,-3.417 -2.32,-5.611 0,-2.194 0.774,-4.064 2.32,-5.611 1.546,-1.547 3.417,-2.319 5.611,-2.319 2.194,0 4.064,0.772 5.611,2.319 C -0.952,-3.311 -0.198,-1.771 0,0"
         style="fill:#ffffff;fill-opacity:1;fill-rule:nonzero;stroke:none"
         transform="matrix(1.3333333,0,0,-1.3333333,372.36787,604.98307)"
         clip-path="url(#clipPath118)" />
      <path
         id="path119"
         d="m 0,0 c -2.194,0 -4.064,-0.772 -5.611,-2.319 -1.546,-1.547 -2.32,-3.417 -2.32,-5.611 0,-2.194 0.774,-4.064 2.32,-5.611 1.547,-1.547 3.417,-2.319 5.611,-2.319 2.194,0 4.064,0.772 5.611,2.319 1.547,1.547 2.319,3.417 2.319,5.611 0,2.194 -0.772,4.064 -2.319,5.611 C 4.064,-0.772 2.194,0 0,0 m 9.814,1.884 c 2.709,-2.71 4.065,-5.981 4.065,-9.814 0,-3.834 -1.356,-7.105 -4.065,-9.814 -2.71,-2.71 -5.981,-4.065 -9.814,-4.065 -3.833,0 -7.104,1.355 -9.814,4.065 -2.71,2.709 -4.064,5.98 -4.064,9.814 0,3.833 1.354,7.104 4.064,9.814 2.71,2.71 5.981,4.064 9.814,4.064 3.833,0 7.104,-1.354 9.814,-4.064"
         style="fill:#ffffff;fill-opacity:1;fill-rule:nonzero;stroke:none"
         transform="matrix(1.3333333,0,0,-1.3333333,401.526,593.0872)"
         clip-path="url(#clipPath120)" />
      <path
         id="path121"
         d="M 0,0 V 31.92 H 5.948 V 14.354 l 21.809,21.809 v -8.406 z"
         style="fill:#ffffff;fill-opacity:1;fill-rule:nonzero;stroke:none"
         transform="matrix(1.3333333,0,0,-1.3333333,316.96093,673.78907)"
         clip-path="url(#clipPath122)" />
      <path
         id="path123"
         d="m 0,0 c -2.194,0 -4.064,-0.772 -5.611,-2.319 -1.546,-1.547 -2.32,-3.417 -2.32,-5.611 0,-2.194 0.774,-4.064 2.32,-5.611 1.547,-1.547 3.417,-2.319 5.611,-2.319 2.194,0 4.064,0.772 5.611,2.319 1.546,1.547 2.32,3.417 2.32,5.611 0,2.194 -0.774,4.064 -2.32,5.611 C 4.064,-0.772 2.194,0 0,0 m 9.814,1.884 c 2.709,-2.71 4.064,-5.981 4.064,-9.814 0,-3.834 -1.355,-7.105 -4.064,-9.814 -2.71,-2.71 -5.981,-4.065 -9.814,-4.065 -3.833,0 -7.104,1.355 -9.814,4.065 -2.71,2.709 -4.064,5.98 -4.064,9.814 0,3.833 1.354,7.104 4.064,9.814 2.71,2.71 5.981,4.064 9.814,4.064 3.833,0 7.104,-1.354 9.814,-4.064"
         style="fill:#ffffff;fill-opacity:1;fill-rule:nonzero;stroke:none"
         transform="matrix(1.3333333,0,0,-1.3333333,369.2832,640.43747)"
         clip-path="url(#clipPath124)" />
      <path
         id="path125"
         d="m 0,0 h 5.948 v -21.809 h 11.896 v -5.948 H 0 Z"
         style="fill:#ffffff;fill-opacity:1;fill-rule:nonzero;stroke:none"
         transform="matrix(1.3333333,0,0,-1.3333333,390.4316,632.50653)"
         clip-path="url(#clipPath126)" />
      <path
         id="path127"
         d="M 0,0 V -21.809 H -5.948 V 0 h -7.931 V 5.948 H 7.93 V 0 Z"
         style="fill:#ffffff;fill-opacity:1;fill-rule:nonzero;stroke:none"
         transform="matrix(1.3333333,0,0,-1.3333333,435.37107,640.43747)"
         clip-path="url(#clipPath128)" />
      <path
         id="path129"
         d="m 0,0 c -2.075,1.844 -4.918,2.843 -7.646,2.843 -6.493,0 -11.45,-5.417 -11.45,-11.834 0,-6.339 4.918,-11.757 11.373,-11.757 2.844,0 5.571,1.076 7.723,2.997 v -4.265 c -2.229,-1.306 -5.072,-2.036 -7.607,-2.036 -8.261,0 -15.1,6.57 -15.1,14.946 0,8.568 6.877,15.253 15.407,15.253 2.536,0 5.11,-0.615 7.3,-1.96 z"
         style="fill:#ffffff;fill-opacity:1;fill-rule:nonzero;stroke:none"
         transform="matrix(1.3333333,0,0,-1.3333333,346.73373,689.26947)"
         clip-path="url(#clipPath130)" />
      <path
         id="path131"
         d="m 0,0 c -2.075,1.844 -4.918,2.843 -7.646,2.843 -6.493,0 -11.45,-5.417 -11.45,-11.834 0,-6.339 4.918,-11.757 11.373,-11.757 2.844,0 5.571,1.076 7.723,2.997 v -4.265 c -2.229,-1.306 -5.072,-2.036 -7.607,-2.036 -8.261,0 -15.1,6.57 -15.1,14.946 0,8.568 6.877,15.253 15.407,15.253 2.536,0 5.11,-0.615 7.3,-1.96 z"
         style="fill:#ffffff;fill-opacity:1;fill-rule:nonzero;stroke:none"
         transform="matrix(1.3333333,0,0,-1.3333333,380.60227,689.26947)"
         clip-path="url(#clipPath132)" />
      <path
         id="path133"
         d="m 0,0 h -0.077 l -3.381,-19.134 h -3.727 l 5.917,30.199 9.951,-22.822 9.951,22.822 5.917,-30.199 H 20.824 L 17.443,0 H 17.366 L 8.683,-19.748 Z"
         style="fill:#ffffff;fill-opacity:1;fill-rule:nonzero;stroke:none"
         transform="matrix(1.3333333,0,0,-1.3333333,392.9036,695.00787)"
         clip-path="url(#clipPath134)" />
    </g>
  </g>
</svg>
