<?xml version="1.0" encoding="UTF-8" standalone="no"?>
<!-- Created with Inkscape (http://www.inkscape.org/) -->

<svg
   width="138.00987mm"
   height="128.92824mm"
   viewBox="0 0 138.00987 128.92824"
   version="1.1"
   id="svg1"
   inkscape:version="1.3.1 (91b66b0783, 2023-11-16)"
   sodipodi:docname="Logo EcoVolt.svg"
   xmlns:inkscape="http://www.inkscape.org/namespaces/inkscape"
   xmlns:sodipodi="http://sodipodi.sourceforge.net/DTD/sodipodi-0.dtd"
   xmlns="http://www.w3.org/2000/svg"
   xmlns:svg="http://www.w3.org/2000/svg">
  <sodipodi:namedview
     id="namedview1"
     pagecolor="#ffffff"
     bordercolor="#999999"
     borderopacity="1"
     inkscape:showpageshadow="2"
     inkscape:pageopacity="0"
     inkscape:pagecheckerboard="0"
     inkscape:deskcolor="#d1d1d1"
     inkscape:document-units="mm"
     inkscape:zoom="0.74564394"
     inkscape:cx="261.51892"
     inkscape:cy="243.41377"
     inkscape:window-width="1920"
     inkscape:window-height="1051"
     inkscape:window-x="-9"
     inkscape:window-y="-9"
     inkscape:window-maximized="1"
     inkscape:current-layer="layer1" />
  <defs
     id="defs1">
    <clipPath
       clipPathUnits="userSpaceOnUse"
       id="clipPath106">
      <path
         d="M 0,792 H 612 V 0 H 0 Z"
         transform="translate(-195.57621,-345.21911)"
         id="path106" />
    </clipPath>
    <clipPath
       clipPathUnits="userSpaceOnUse"
       id="clipPath108">
      <path
         d="M 0,792 H 612 V 0 H 0 Z"
         transform="translate(-123.82761,-319.98871)"
         id="path108" />
    </clipPath>
    <clipPath
       clipPathUnits="userSpaceOnUse"
       id="clipPath110">
      <path
         d="M 0,792 H 612 V 0 H 0 Z"
         transform="translate(-205.86661,-310.08441)"
         id="path110" />
    </clipPath>
    <clipPath
       clipPathUnits="userSpaceOnUse"
       id="clipPath112">
      <path
         d="M 0,792 H 612 V 0 H 0 Z"
         transform="translate(-158.076,-258.93561)"
         id="path112" />
    </clipPath>
    <clipPath
       clipPathUnits="userSpaceOnUse"
       id="clipPath114">
      <path
         d="M 0,792 H 612 V 0 H 0 Z"
         transform="translate(-203.1208,-281.4283)"
         id="path114" />
    </clipPath>
    <clipPath
       clipPathUnits="userSpaceOnUse"
       id="clipPath116">
      <path
         d="M 0,792 H 612 V 0 H 0 Z"
         transform="translate(-255.54391,-353.13281)"
         id="path116" />
    </clipPath>
    <clipPath
       clipPathUnits="userSpaceOnUse"
       id="clipPath118">
      <path
         d="M 0,792 H 612 V 0 H 0 Z"
         transform="translate(-279.27591,-338.26271)"
         id="path118" />
    </clipPath>
    <clipPath
       clipPathUnits="userSpaceOnUse"
       id="clipPath120">
      <path
         d="M 0,792 H 612 V 0 H 0 Z"
         transform="translate(-301.14451,-347.18461)"
         id="path120" />
    </clipPath>
    <clipPath
       clipPathUnits="userSpaceOnUse"
       id="clipPath122">
      <path
         d="M 0,792 H 612 V 0 H 0 Z"
         transform="translate(-237.7207,-286.6582)"
         id="path122" />
    </clipPath>
    <clipPath
       clipPathUnits="userSpaceOnUse"
       id="clipPath124">
      <path
         d="M 0,792 H 612 V 0 H 0 Z"
         transform="translate(-276.96241,-311.67191)"
         id="path124" />
    </clipPath>
    <clipPath
       clipPathUnits="userSpaceOnUse"
       id="clipPath126">
      <path
         d="M 0,792 H 612 V 0 H 0 Z"
         transform="translate(-292.82371,-317.62011)"
         id="path126" />
    </clipPath>
    <clipPath
       clipPathUnits="userSpaceOnUse"
       id="clipPath128">
      <path
         d="M 0,792 H 612 V 0 H 0 Z"
         transform="translate(-326.52831,-311.67191)"
         id="path128" />
    </clipPath>
    <clipPath
       clipPathUnits="userSpaceOnUse"
       id="clipPath130">
      <path
         d="M 0,792 H 612 V 0 H 0 Z"
         transform="translate(-260.0503,-275.0479)"
         id="path130" />
    </clipPath>
    <clipPath
       clipPathUnits="userSpaceOnUse"
       id="clipPath132">
      <path
         d="M 0,792 H 612 V 0 H 0 Z"
         transform="translate(-285.45171,-275.0479)"
         id="path132" />
    </clipPath>
    <clipPath
       clipPathUnits="userSpaceOnUse"
       id="clipPath134">
      <path
         d="M 0,792 H 612 V 0 H 0 Z"
         transform="translate(-294.67771,-270.7441)"
         id="path134" />
    </clipPath>
    <clipPath
       clipPathUnits="userSpaceOnUse"
       id="clipPath136">
      <path
         d="M 0,792 H 612 V 0 H 0 Z"
         transform="translate(-120.7978,-292.3822)"
         id="path136" />
    </clipPath>
    <clipPath
       clipPathUnits="userSpaceOnUse"
       id="clipPath138">
      <path
         d="M 0,792 H 612 V 0 H 0 Z"
         transform="translate(-196.59141,-290.7289)"
         id="path138" />
    </clipPath>
  </defs>
  <g
     inkscape:label="Capa 1"
     inkscape:groupmode="layer"
     id="layer1"
     transform="translate(-35.995066,-84.035874)">
    <g
       id="group-MC0"
       transform="matrix(0.40207652,0,0,0.40207652,-5.2988393,-117.21892)">
      <path
         id="path105"
         d="m 0,0 -49.715,-68.137 38.572,8.627 -107.407,-109.605 45.293,75.679 -34.028,-7.45 46.588,68.883 -35.507,-8.261 107.427,111.641 -35.958,-77.674 2.313,0.651 h 0.005 z"
         style="fill:#0033a0 icc-color(sRGB-IEC61966-2, 0.1, 0, 0.19999695, 0.6269989);fill-opacity:1;fill-rule:nonzero;stroke:none"
         transform="matrix(1.3333333,0,0,-1.3333333,260.76827,595.70787)"
         clip-path="url(#clipPath106)" />
      <path
         id="path107"
         d="m 0,0 c 0,0 -11.032,-12.256 0.99,-32.607 11.979,-20.277 39.65,-18.679 51.559,-7.105 11.909,11.574 21.517,22.82 13.422,34.25 C 57.877,5.967 47.197,19.687 33.618,17.046 20.039,14.405 9.461,-1.543 8.262,-5.568 7.063,-9.592 0,0 0,0"
         style="fill:#ffffff icc-color(sRGB-IEC61966-2, 0.1, 1, 1, 1);fill-opacity:1;fill-rule:nonzero;stroke:none"
         transform="matrix(1.3333333,0,0,-1.3333333,165.10347,629.3484)"
         clip-path="url(#clipPath108)" />
      <path
         id="path109"
         d="m 0,0 c 0,-24.654 -19.443,-44.64 -43.428,-44.64 -23.985,0 -43.428,19.986 -43.428,44.64 0,24.654 19.443,44.64 43.428,44.64 C -19.443,44.64 0,24.654 0,0"
         style="fill:#ffffff icc-color(sRGB-IEC61966-2, 0.1, 1, 1, 1);fill-opacity:1;fill-rule:nonzero;stroke:none"
         transform="matrix(1.3333333,0,0,-1.3333333,274.4888,642.55413)"
         clip-path="url(#clipPath110)" />
      <path
         id="path111"
         d="m 0,0 c -4.272,1.291 -11.923,3.59 -15.718,6.132 -12.181,8.161 -23.07,25.695 -22.101,32.726 0,0 7.045,-18.199 25.961,-20.806 27.286,-3.76 37.91,17.979 38.89,27.222 C 28.258,56.835 21.044,67.421 10.33,68.898 -0.384,70.374 -9.975,63.124 -11.736,56.074 -13.131,50.489 -11.29,43.22 -3.757,42.182 3.776,41.144 6.881,46.345 7.365,49.86 7.85,53.376 6.793,59.321 0.264,60.221 c 0,0 2.29,1.763 8.191,1.259 7.24,-0.619 11.661,-9.454 10.531,-17.656 -1.13,-8.203 -9.187,-22.104 -28.94,-19.381 -19.753,2.722 -26.14,23.218 -24.294,36.61 1.845,13.392 18.449,38.567 50.255,34.184 33.647,-4.636 41.363,-32.017 42.541,-44.072 1.057,-10.806 -1.151,-23.21 -1.151,-23.21 0,0 13.095,-43.273 13.319,-43.917 0.224,-0.643 0.245,-0.984 -0.324,-1.532 -0.471,-0.453 -4.697,-4.574 -6.179,-5.955 -0.537,-0.5 -1.3,-0.327 -1.3,-0.327 l -3.518,0.623 c 0,0 -3.215,-2.286 -6.373,-1.68 -3.157,0.605 -5.322,3.462 -7.326,7.491 -2.003,4.029 -6.696,5.87 -9.617,6.955 -2.921,1.084 -18.184,4.211 -16.523,16.264 1.085,7.868 3.751,9.888 3.751,9.888 0,0 -5.267,-0.199 -10.695,-4.43 C 7.184,7.104 0,0 0,0"
         style="fill:#0033a0 icc-color(sRGB-IEC61966-2, 0.1, 0, 0.19999695, 0.6269989);fill-opacity:1;fill-rule:nonzero;stroke:none"
         transform="matrix(1.3333333,0,0,-1.3333333,210.768,710.75253)"
         clip-path="url(#clipPath112)" />
      <path
         id="path113"
         d="M 0,0 6.356,-4.629 7.28,-12.773 0.059,-7.002 Z"
         style="fill:#ffffff icc-color(sRGB-IEC61966-2, 0.1, 1, 1, 1);fill-opacity:1;fill-rule:nonzero;stroke:none"
         transform="matrix(1.3333333,0,0,-1.3333333,270.82773,680.76227)"
         clip-path="url(#clipPath114)" />
      <path
         id="path115"
         d="m 0,0 v -5.948 h -11.896 v -4.956 H 0 v -5.949 h -11.896 v -4.956 H 0 v -5.948 H -17.844 V 0 Z"
         style="fill:#0033a0 icc-color(sRGB-IEC61966-2, 0.1, 0, 0.19999695, 0.6269989);fill-opacity:1;fill-rule:nonzero;stroke:none"
         transform="matrix(1.3333333,0,0,-1.3333333,340.7252,585.15627)"
         clip-path="url(#clipPath116)" />
      <path
         id="path117"
         d="M 0,0 H 5.968 C 5.756,-3.41 4.415,-6.351 1.943,-8.822 c -2.71,-2.71 -5.981,-4.065 -9.814,-4.065 -3.834,0 -7.105,1.355 -9.814,4.065 -2.71,2.709 -4.065,5.98 -4.065,9.814 0,3.833 1.355,7.104 4.065,9.814 2.709,2.71 5.98,4.064 9.814,4.064 3.833,0 7.104,-1.354 9.814,-4.064 C 4.415,8.334 5.756,5.394 5.968,1.983 H 0 c -0.198,1.771 -0.952,3.311 -2.26,4.62 -1.547,1.546 -3.417,2.319 -5.611,2.319 -2.194,0 -4.065,-0.773 -5.611,-2.319 -1.546,-1.547 -2.32,-3.417 -2.32,-5.611 0,-2.194 0.774,-4.064 2.32,-5.611 1.546,-1.547 3.417,-2.319 5.611,-2.319 2.194,0 4.064,0.772 5.611,2.319 C -0.952,-3.311 -0.198,-1.771 0,0"
         style="fill:#0033a0 icc-color(sRGB-IEC61966-2, 0.1, 0, 0.19999695, 0.6269989);fill-opacity:1;fill-rule:nonzero;stroke:none"
         transform="matrix(1.3333333,0,0,-1.3333333,372.36787,604.98307)"
         clip-path="url(#clipPath118)" />
      <path
         id="path119"
         d="m 0,0 c -2.194,0 -4.064,-0.772 -5.611,-2.319 -1.546,-1.547 -2.32,-3.417 -2.32,-5.611 0,-2.194 0.774,-4.064 2.32,-5.611 1.547,-1.547 3.417,-2.319 5.611,-2.319 2.194,0 4.064,0.772 5.611,2.319 1.547,1.547 2.319,3.417 2.319,5.611 0,2.194 -0.772,4.064 -2.319,5.611 C 4.064,-0.772 2.194,0 0,0 m 9.814,1.884 c 2.709,-2.71 4.065,-5.981 4.065,-9.814 0,-3.834 -1.356,-7.105 -4.065,-9.814 -2.71,-2.71 -5.981,-4.065 -9.814,-4.065 -3.833,0 -7.104,1.355 -9.814,4.065 -2.71,2.709 -4.064,5.98 -4.064,9.814 0,3.833 1.354,7.104 4.064,9.814 2.71,2.71 5.981,4.064 9.814,4.064 3.833,0 7.104,-1.354 9.814,-4.064"
         style="fill:#0033a0 icc-color(sRGB-IEC61966-2, 0.1, 0, 0.19999695, 0.6269989);fill-opacity:1;fill-rule:nonzero;stroke:none"
         transform="matrix(1.3333333,0,0,-1.3333333,401.526,593.0872)"
         clip-path="url(#clipPath120)" />
      <path
         id="path121"
         d="M 0,0 V 31.92 H 5.948 V 14.354 l 21.809,21.809 v -8.406 z"
         style="fill:#0033a0 icc-color(sRGB-IEC61966-2, 0.1, 0, 0.19999695, 0.6269989);fill-opacity:1;fill-rule:nonzero;stroke:none"
         transform="matrix(1.3333333,0,0,-1.3333333,316.96093,673.78907)"
         clip-path="url(#clipPath122)" />
      <path
         id="path123"
         d="m 0,0 c -2.194,0 -4.064,-0.772 -5.611,-2.319 -1.546,-1.547 -2.32,-3.417 -2.32,-5.611 0,-2.194 0.774,-4.064 2.32,-5.611 1.547,-1.547 3.417,-2.319 5.611,-2.319 2.194,0 4.064,0.772 5.611,2.319 1.546,1.547 2.32,3.417 2.32,5.611 0,2.194 -0.774,4.064 -2.32,5.611 C 4.064,-0.772 2.194,0 0,0 m 9.814,1.884 c 2.709,-2.71 4.064,-5.981 4.064,-9.814 0,-3.834 -1.355,-7.105 -4.064,-9.814 -2.71,-2.71 -5.981,-4.065 -9.814,-4.065 -3.833,0 -7.104,1.355 -9.814,4.065 -2.71,2.709 -4.064,5.98 -4.064,9.814 0,3.833 1.354,7.104 4.064,9.814 2.71,2.71 5.981,4.064 9.814,4.064 3.833,0 7.104,-1.354 9.814,-4.064"
         style="fill:#0033a0 icc-color(sRGB-IEC61966-2, 0.1, 0, 0.19999695, 0.6269989);fill-opacity:1;fill-rule:nonzero;stroke:none"
         transform="matrix(1.3333333,0,0,-1.3333333,369.2832,640.43747)"
         clip-path="url(#clipPath124)" />
      <path
         id="path125"
         d="m 0,0 h 5.948 v -21.809 h 11.896 v -5.948 H 0 Z"
         style="fill:#0033a0 icc-color(sRGB-IEC61966-2, 0.1, 0, 0.19999695, 0.6269989);fill-opacity:1;fill-rule:nonzero;stroke:none"
         transform="matrix(1.3333333,0,0,-1.3333333,390.4316,632.50653)"
         clip-path="url(#clipPath126)" />
      <path
         id="path127"
         d="M 0,0 V -21.809 H -5.948 V 0 h -7.931 V 5.948 H 7.93 V 0 Z"
         style="fill:#0033a0 icc-color(sRGB-IEC61966-2, 0.1, 0, 0.19999695, 0.6269989);fill-opacity:1;fill-rule:nonzero;stroke:none"
         transform="matrix(1.3333333,0,0,-1.3333333,435.37107,640.43747)"
         clip-path="url(#clipPath128)" />
      <path
         id="path129"
         d="m 0,0 c -2.075,1.844 -4.918,2.843 -7.646,2.843 -6.493,0 -11.45,-5.417 -11.45,-11.834 0,-6.339 4.918,-11.757 11.373,-11.757 2.844,0 5.571,1.076 7.723,2.997 v -4.265 c -2.229,-1.306 -5.072,-2.036 -7.607,-2.036 -8.261,0 -15.1,6.57 -15.1,14.946 0,8.568 6.877,15.253 15.407,15.253 2.536,0 5.11,-0.615 7.3,-1.96 z"
         style="fill:#878787 icc-color(sRGB-IEC61966-2, 0.1, 0.5289917, 0.5289917, 0.5289917);fill-opacity:1;fill-rule:nonzero;stroke:none"
         transform="matrix(1.3333333,0,0,-1.3333333,346.73373,689.26947)"
         clip-path="url(#clipPath130)" />
      <path
         id="path131"
         d="m 0,0 c -2.075,1.844 -4.918,2.843 -7.646,2.843 -6.493,0 -11.45,-5.417 -11.45,-11.834 0,-6.339 4.918,-11.757 11.373,-11.757 2.844,0 5.571,1.076 7.723,2.997 v -4.265 c -2.229,-1.306 -5.072,-2.036 -7.607,-2.036 -8.261,0 -15.1,6.57 -15.1,14.946 0,8.568 6.877,15.253 15.407,15.253 2.536,0 5.11,-0.615 7.3,-1.96 z"
         style="fill:#878787 icc-color(sRGB-IEC61966-2, 0.1, 0.5289917, 0.5289917, 0.5289917);fill-opacity:1;fill-rule:nonzero;stroke:none"
         transform="matrix(1.3333333,0,0,-1.3333333,380.60227,689.26947)"
         clip-path="url(#clipPath132)" />
      <path
         id="path133"
         d="m 0,0 h -0.077 l -3.381,-19.134 h -3.727 l 5.917,30.199 9.951,-22.822 9.951,22.822 5.917,-30.199 H 20.824 L 17.443,0 H 17.366 L 8.683,-19.748 Z"
         style="fill:#878787 icc-color(sRGB-IEC61966-2, 0.1, 0.5289917, 0.5289917, 0.5289917);fill-opacity:1;fill-rule:nonzero;stroke:none"
         transform="matrix(1.3333333,0,0,-1.3333333,392.9036,695.00787)"
         clip-path="url(#clipPath134)" />
      <path
         id="path135"
         d="M 0,0 2.315,3.432 -1.197,8.461 -1.596,0.878 Z"
         style="fill:#ffffff icc-color(sRGB-IEC61966-2, 0.1, 1, 1, 1);fill-opacity:1;fill-rule:nonzero;stroke:none"
         transform="matrix(1.3333333,0,0,-1.3333333,161.06373,666.15707)"
         clip-path="url(#clipPath136)" />
      <path
         id="path137"
         d="m 0,0 c 0,0 2.161,-5.107 10.804,-2.161 0,0 5.107,5.991 3.535,25.831 -1.4,17.673 -15.338,31.771 -32.803,35.652 -8.84,1.964 -24.947,2.062 -33.59,-5.107 0,0 9.404,6.717 27.206,4.321 10.214,-1.375 18.177,-6.532 23.08,-12.277 C 17.679,23.473 0,0 0,0"
         style="fill:#ffffff icc-color(sRGB-IEC61966-2, 0.1, 1, 1, 1);fill-opacity:1;fill-rule:nonzero;stroke:none"
         transform="matrix(1.3333333,0,0,-1.3333333,262.12187,668.36147)"
         clip-path="url(#clipPath138)" />
    </g>
  </g>
</svg>
